<?xml version="1.0" encoding="utf-8"?>
<!-- Generator: Adobe Illustrator 25.2.0, SVG Export Plug-In . SVG Version: 6.00 Build 0)  -->
<svg version="1.1" id="Layer_1" xmlns="http://www.w3.org/2000/svg" xmlns:xlink="http://www.w3.org/1999/xlink" x="0px" y="0px"
	 viewBox="0 0 190.69 385.51" style="enable-background:new 0 0 190.69 385.51;" xml:space="preserve">
<path d="M94.96,208.97c35.71,0,64.66-26.89,64.66-66.7V0h-30.53v157.54c0,27.28-15.28,49.4-34.13,49.4
	c-18.85,0-34.13-22.11-34.13-49.4V0H30.3v142.27C30.3,182.08,59.25,208.97,94.96,208.97z M34.15,239.94v48.89H47.7v-4.4h-8.66
	v-44.49H34.15z M35.6,353.61c0,1.13-0.82,1.87-2.06,1.87c-1.22,0-2.04-0.73-2.04-1.87V337.3h-2.01v16.31c0,2.26,1.61,3.64,4.04,3.64
	c2.43,0,4.07-1.38,4.07-3.64V337.3H35.6V353.61z M50.75,357.08V337.3h-1.84v9.16c0,1.98,0.03,3.53,0.11,5.46l-4.41-14.61h-2.2v19.78
	h1.86v-9.16c0-2.04-0.03-3.56-0.11-5.51l4.44,14.67H50.75z M116.72,247.21v34.37c0,4.75,2.87,7.61,8.1,7.61
	c5.24,0,8.1-2.86,8.1-7.61v-34.37c0-4.75-2.86-7.62-8.1-7.62C119.59,239.59,116.72,242.46,116.72,247.21z M128.04,247.21v34.37
	c0,1.75-1.19,3-3.21,3c-2.03,0-3.21-1.26-3.21-3v-34.37c0-1.75,1.19-3,3.21-3C126.85,244.2,128.04,245.46,128.04,247.21z
	 M53.46,365.56h-4.18v19.78h4.18c2.43,0,3.96-1.33,3.96-3.59v-12.61C57.42,366.89,55.89,365.56,53.46,365.56z M55.38,381.76
	c0,1.13-0.74,1.87-1.92,1.87h-2.15v-16.34h2.15c1.19,0,1.92,0.76,1.92,1.86V381.76z M59.51,288.83v-48.89h-4.89v48.89H59.51z
	 M108.34,259.15v-11.87c0-4.75-2.66-7.34-7.89-7.34h-8.03v48.89h8.38c5.24,0,7.89-2.65,7.89-7.33v-12.08c0-2.58-1.33-4.33-3.91-5.17
	C107.15,263.34,108.34,261.59,108.34,259.15z M97.3,244.27h3.14c2.03,0,3,1.26,3,3v11.87c0,1.75-0.98,2.93-3,2.93H97.3V244.27z
	 M103.8,281.5c0,1.75-0.98,2.93-3,2.93H97.3v-17.95h3.49c2.03,0,3,1.19,3,2.93V281.5z M139.42,288.83h4.68l1.61-13.27h5.73
	l1.61,13.27h4.89l-6.78-49.24h-4.89L139.42,288.83z M150.95,271.16h-4.75l2.38-19.84L150.95,271.16z M84.09,257.4v-10.2
	c0-4.75-2.86-7.62-8.09-7.62c-5.24,0-8.1,2.87-8.1,7.62v6.84c0,11.8,11.32,12.78,11.32,21.44v6.08c0,1.75-1.19,3-3.21,3
	c-2.03,0-3.21-1.26-3.21-3v-10.2h-4.89v10.2c0,4.75,2.87,7.61,8.1,7.61c5.24,0,8.09-2.86,8.09-7.61v-6.08
	c0-11.53-11.31-13.13-11.31-21.44v-6.84c0-1.75,1.19-3,3.21-3c2.03,0,3.21,1.26,3.21,3v10.2H84.09z M55.58,357.08h2.04V337.3h-2.04
	V357.08z M110.44,337.3v19.78h2.04V337.3H110.44z M125.45,353.49v-12.61c0-2.26-1.53-3.59-3.96-3.59h-4.18v19.78h4.18
	C123.92,357.08,125.45,355.75,125.45,353.49z M119.34,339.02h2.15c1.19,0,1.92,0.76,1.92,1.86v12.61c0,1.13-0.74,1.87-1.92,1.87
	h-2.15V339.02z M136.33,357.08h2.06l-3.7-19.92h-2.03l-3.73,19.92h2.01l0.9-5.4h3.59L136.33,357.08z M132.12,349.96l1.5-8.99
	l1.53,8.99H132.12z M136.78,365.42l-3.73,19.92h2.01l0.91-5.4h3.59l0.91,5.4h2.06l-3.7-19.92H136.78z M136.24,378.22l1.5-8.99
	l1.53,8.99H136.24z M125.5,365.39c-2.43,0-4.07,1.38-4.07,3.64v12.83c0,2.26,1.64,3.64,4.07,3.64c2.43,0,4.04-1.38,4.04-3.64v-12.83
	C129.54,366.78,127.93,365.39,125.5,365.39z M127.54,381.87c0,1.1-0.82,1.87-2.03,1.87c-1.24,0-2.04-0.76-2.04-1.87v-12.83
	c0-1.1,0.79-1.86,2.04-1.86c1.21,0,2.03,0.76,2.03,1.86V381.87z M0,312.66v1.71h190.69v-1.71H0z M115.13,375.28
	c1.1-0.42,1.78-1.3,1.78-2.63v-3.68c0-2.26-1.5-3.42-3.84-3.42h-4.04v19.78h4.29c2.43,0,3.9-1.21,3.9-3.47v-3.79
	C117.22,376.64,116.43,375.71,115.13,375.28z M111.06,367.29h1.98c1.13,0,1.84,0.65,1.84,1.75v3.73c0,1.1-0.71,1.75-1.84,1.75h-1.98
	V367.29z M115.21,381.81c0,1.16-0.73,1.81-1.89,1.81h-2.26v-7.38h2.26c1.16,0,1.89,0.68,1.89,1.78V381.81z M154.9,357.08h7.04v-1.72
	h-5v-7.38h4.16v-1.73h-4.16v-7.23h5v-1.72h-7.04V357.08z M146.3,337.3h-4.18v19.78h4.18c2.43,0,3.96-1.33,3.96-3.59v-12.61
	C150.26,338.63,148.74,337.3,146.3,337.3z M148.23,353.49c0,1.13-0.73,1.87-1.92,1.87h-2.15v-16.34h2.15c1.19,0,1.92,0.76,1.92,1.86
	V353.49z M81.58,339.02v-1.72h-7.04v19.78h7.04v-1.72h-5v-7.38h4.16v-1.73h-4.16v-7.23H81.58z M62.05,385.34h7.04v-1.72h-5v-7.38
	h4.15v-1.72h-4.15v-7.23h5v-1.72h-7.04V385.34z M81.27,365.56h-2.01v19.78h6.95v-1.72h-4.95V365.56z M66.12,353.13l-2.68-15.83
	h-2.06l3.7,19.92h2.01l3.73-19.92h-1.98L66.12,353.13z M99.98,342.83v-2.21c0-0.98,0.73-1.72,1.98-1.72c1.21,0,2,0.76,2,1.86v3.59
	h1.98v-3.59c0-2.26-1.55-3.64-3.98-3.64c-2.43,0-3.99,1.3-3.99,3.5v2.21c0,5.15,6.02,5.15,6.02,8.88v2.01
	c0,1.04-0.82,1.75-2.03,1.75c-1.24,0-2.09-0.73-2.09-1.87v-3.59h-1.98v3.59c0,2.26,1.61,3.64,4.04,3.64c2.43,0,4.1-1.3,4.1-3.59
	v-2.01C106.03,346.57,99.98,346.51,99.98,342.83z M98.57,371.1v-2.21c0-0.99,0.73-1.72,1.98-1.72c1.21,0,2,0.76,2,1.86v3.59h1.98
	v-3.59c0-2.26-1.55-3.64-3.98-3.64c-2.43,0-3.98,1.3-3.98,3.5v2.21c0,5.14,6.02,5.14,6.02,8.88v2.01c0,1.05-0.82,1.75-2.03,1.75
	c-1.24,0-2.09-0.73-2.09-1.87v-3.59h-1.98v3.59c0,2.26,1.61,3.64,4.04,3.64c2.43,0,4.1-1.3,4.1-3.59v-2.01
	C104.62,374.83,98.57,374.77,98.57,371.1z M90.03,385.34h2.04v-19.78h-2.04V385.34z M91.7,347.33c1.3-0.45,2.01-1.55,2.01-3.22
	v-3.34c0-2.17-1.33-3.47-3.76-3.47h-4.3v19.78h2.04v-8.96h1.64c1.19,0,1.95,0.48,2.12,2.04l0.54,6.92h2.04l-0.65-6.98
	C93.2,348.55,92.6,347.73,91.7,347.33z M89.86,346.4h-2.18v-7.38h2.18c1.24,0,1.84,0.79,1.84,1.8v3.79
	C91.7,345.66,91.11,346.4,89.86,346.4z"/>
</svg>
