<?xml version="1.0" encoding="utf-8"?>
<!-- Generator: Adobe Illustrator 25.2.0, SVG Export Plug-In . SVG Version: 6.00 Build 0)  -->
<svg version="1.1" id="Layer_1" xmlns="http://www.w3.org/2000/svg" xmlns:xlink="http://www.w3.org/1999/xlink" x="0px" y="0px"
	 viewBox="0 0 401.9 82.61" style="enable-background:new 0 0 401.9 82.61;" xml:space="preserve">
<path d="M193.54,16.51l-6.85,49.24h4.68l1.61-13.27h5.73l1.61,13.27h4.89l-6.78-49.24H193.54z M193.47,48.08l2.38-19.84l2.38,19.84
	H193.47z M172.1,16.51c-5.24,0-8.1,2.87-8.1,7.62v34.37c0,4.75,2.87,7.61,8.1,7.61c5.24,0,8.1-2.86,8.1-7.61V24.12
	C180.2,19.37,177.34,16.51,172.1,16.51z M175.31,58.49c0,1.75-1.19,3-3.21,3c-2.03,0-3.21-1.26-3.21-3V24.12c0-1.75,1.19-3,3.21-3
	c2.03,0,3.21,1.26,3.21,3V58.49z M282.23,65.33h7.04v-1.72h-5v-7.38h4.15V54.5h-4.15v-7.23h5v-1.72h-7.04V65.33z M273.64,45.54
	h-4.18v19.78h4.18c2.43,0,3.96-1.33,3.96-3.59V49.13C277.6,46.87,276.07,45.54,273.64,45.54z M275.56,61.74
	c0,1.13-0.74,1.87-1.92,1.87h-2.15V47.27h2.15c1.19,0,1.92,0.76,1.92,1.86V61.74z M236.25,82.61h1.71V0h-1.71V82.61z M123.27,16.51
	c-5.24,0-8.1,2.87-8.1,7.62v6.84c0,11.8,11.32,12.78,11.32,21.44v6.08c0,1.75-1.19,3-3.21,3c-2.03,0-3.21-1.26-3.21-3v-10.2h-4.89
	v10.2c0,4.75,2.87,7.61,8.1,7.61c5.24,0,8.09-2.86,8.09-7.61v-6.08c0-11.53-11.31-13.13-11.31-21.44v-6.84c0-1.75,1.19-3,3.21-3
	c2.03,0,3.21,1.26,3.21,3v10.2h4.88v-10.2C131.37,19.37,128.51,16.51,123.27,16.51z M86.31,16.86h-4.89v48.89h13.55v-4.4h-8.66
	V16.86z M273.5,37.23c2.43,0,4.07-1.38,4.07-3.64V17.28h-2.01v16.31c0,1.13-0.82,1.87-2.06,1.87c-1.22,0-2.04-0.73-2.04-1.87V17.28
	h-2.01v16.31C269.46,35.85,271.07,37.23,273.5,37.23z M152.05,41.16c2.38-0.91,3.56-2.66,3.56-5.1V24.19c0-4.75-2.66-7.34-7.89-7.34
	h-8.03v48.89h8.38c5.24,0,7.89-2.65,7.89-7.33V46.33C155.96,43.75,154.63,42,152.05,41.16z M144.57,21.19h3.14c2.03,0,3,1.26,3,3
	v11.87c0,1.75-0.98,2.93-3,2.93h-3.14V21.19z M151.07,58.42c0,1.75-0.98,2.93-3,2.93h-3.49V43.4h3.49c2.03,0,3,1.19,3,2.93V58.42z
	 M39.05,62.28c0,10.79-6.04,19.53-13.49,19.53c-7.45,0-13.49-8.74-13.49-19.53V0H0v56.24c0,15.74,11.45,26.37,25.56,26.37
	c14.12,0,25.56-10.63,25.56-26.37V0H39.05V62.28z M101.89,65.75h4.89V16.86h-4.89V65.75z M331.41,30.14l0.54,6.92h2.04l-0.65-6.98
	c-0.17-1.55-0.76-2.37-1.67-2.77c1.3-0.45,2.01-1.55,2.01-3.22v-3.34c0-2.17-1.33-3.47-3.76-3.47h-4.3v19.78h2.04V28.1h1.64
	C330.48,28.1,331.24,28.58,331.41,30.14z M327.66,19h2.18c1.24,0,1.84,0.79,1.84,1.8v3.79c0,1.05-0.59,1.78-1.84,1.78h-2.18V19z
	 M350.41,37.06h2.04V17.28h-2.04V37.06z M356.96,45.4l-3.73,19.92h2.01l0.9-5.4h3.59l0.9,5.4h2.06L359,45.4H356.96z M356.43,58.21
	l1.5-8.99l1.53,8.99H356.43z M345.69,45.38c-2.43,0-4.07,1.38-4.07,3.64v12.83c0,2.26,1.64,3.64,4.07,3.64
	c2.43,0,4.04-1.38,4.04-3.64V49.02C349.73,46.76,348.12,45.38,345.69,45.38z M347.72,61.85c0,1.1-0.82,1.87-2.03,1.87
	c-1.24,0-2.04-0.76-2.04-1.87V49.02c0-1.1,0.79-1.86,2.04-1.86c1.21,0,2.03,0.76,2.03,1.86V61.85z M361.46,17.28h-4.18v19.78h4.18
	c2.43,0,3.96-1.33,3.96-3.59V20.87C365.42,18.61,363.89,17.28,361.46,17.28z M363.38,33.47c0,1.13-0.74,1.87-1.92,1.87h-2.15V19
	h2.15c1.19,0,1.92,0.76,1.92,1.86V33.47z M401.9,19v-1.72h-7.04v19.78h7.04v-1.72h-5v-7.38h4.16v-1.73h-4.16V19H401.9z M346,33.64
	v-2.01c0-5.09-6.04-5.14-6.04-8.82v-2.21c0-0.98,0.73-1.72,1.98-1.72c1.21,0,2,0.76,2,1.86v3.59h1.98v-3.59
	c0-2.26-1.55-3.64-3.98-3.64c-2.43,0-3.99,1.3-3.99,3.5v2.21c0,5.15,6.02,5.15,6.02,8.88v2.01c0,1.04-0.82,1.75-2.03,1.75
	c-1.24,0-2.09-0.73-2.09-1.87V30h-1.98v3.59c0,2.26,1.61,3.64,4.04,3.64C344.33,37.23,346,35.93,346,33.64z M386.27,17.28h-4.18
	v19.78h4.18c2.43,0,3.96-1.33,3.96-3.59V20.87C390.23,18.61,388.71,17.28,386.27,17.28z M388.2,33.47c0,1.13-0.73,1.87-1.92,1.87
	h-2.15V19h2.15c1.19,0,1.92,0.76,1.92,1.86V33.47z M372.62,17.14l-3.73,19.92h2.01l0.9-5.4h3.59l0.91,5.4h2.06l-3.7-19.92H372.62z
	 M372.08,29.94l1.5-8.99l1.53,8.99H372.08z M318.75,51.08v-2.21c0-0.99,0.73-1.72,1.98-1.72c1.21,0,2,0.76,2,1.86v3.59h1.98v-3.59
	c0-2.26-1.55-3.64-3.98-3.64c-2.43,0-3.98,1.3-3.98,3.5v2.21c0,5.14,6.02,5.14,6.02,8.88v2.01c0,1.05-0.82,1.75-2.03,1.75
	c-1.24,0-2.09-0.73-2.09-1.87v-3.59h-1.98v3.59c0,2.26,1.61,3.64,4.04,3.64c2.43,0,4.1-1.3,4.1-3.59V59.9
	C324.8,54.81,318.75,54.76,318.75,51.08z M301.46,45.54h-2.01v19.78h6.95v-1.72h-4.95V45.54z M308.8,17.28l-2.71,15.83l-2.68-15.83
	h-2.06l3.7,19.92h2.01l3.73-19.92H308.8z M295.55,37.06h2.04V17.28h-2.04V37.06z M321.55,35.34h-5v-7.38h4.16v-1.73h-4.16V19h5
	v-1.72h-7.04v19.78h7.04V35.34z M288.88,26.44c0,1.98,0.03,3.53,0.11,5.46l-4.41-14.61h-2.2v19.78h1.86V27.9
	c0-2.04-0.03-3.56-0.11-5.51l4.44,14.67h2.15V17.28h-1.84V26.44z M310.22,65.33h2.04V45.54h-2.04V65.33z M335.31,55.27
	c1.1-0.42,1.78-1.3,1.78-2.63v-3.68c0-2.26-1.5-3.42-3.84-3.42h-4.04v19.78h4.29c2.43,0,3.9-1.21,3.9-3.47v-3.79
	C337.41,56.62,336.62,55.69,335.31,55.27z M331.24,47.27h1.98c1.13,0,1.84,0.65,1.84,1.75v3.73c0,1.1-0.71,1.75-1.84,1.75h-1.98
	V47.27z M335.4,61.79c0,1.16-0.73,1.81-1.89,1.81h-2.26v-7.38h2.26c1.16,0,1.89,0.68,1.89,1.78V61.79z"/>
</svg>
